<?xml version="1.0" encoding="UTF-8"?>
<svg width="14px" height="9px" viewBox="0 0 14 9" version="1.1" xmlns="http://www.w3.org/2000/svg" xmlns:xlink="http://www.w3.org/1999/xlink">
    <!-- Generator: Sketch 54.1 (76490) - https://sketchapp.com -->
    <title>Behance</title>
    <desc>Created with Sketch.</desc>
    <g id="Page-1" stroke="none" stroke-width="1" fill="none" fill-rule="evenodd">
        <g id="website-hd-copy-10" transform="translate(-1866.000000, -536.000000)" fill="#000000" fill-rule="nonzero">
            <g id="34364" transform="translate(1866.000000, 536.000000)">
                <path d="M12.6172807,1.23823666 L9.11653364,1.23823666 L9.11653364,0.368677494 L12.6175731,0.368677494 L12.6175731,1.23823666 L12.6172807,1.23823666 L12.6172807,1.23823666 Z M6.78600464,4.80401392 C7.01188863,5.15388399 7.12476566,5.57869142 7.12476566,6.07742923 C7.12476566,6.59318794 6.99749884,7.05587007 6.73858005,7.46456613 C6.57386079,7.73501624 6.36935035,7.96346636 6.12361949,8.14738283 C5.84686775,8.36007889 5.51921578,8.50592575 5.14254756,8.58385151 C4.76467749,8.66190719 4.3556891,8.70134107 3.91512761,8.70134107 L0,8.70134107 L0,0.00802320186 L4.19837587,0.00802320186 C5.25662645,0.0252389791 6.00687703,0.331842227 6.44990719,0.933972158 C6.71574478,1.30326682 6.84746172,1.74639443 6.84746172,2.261471 C6.84746172,2.79295128 6.71415313,3.21821346 6.44571694,3.54131787 C6.29639443,3.72247332 6.0758051,3.88725754 5.78378654,4.03599536 C6.22610209,4.19792111 6.5617123,4.45290951 6.78600464,4.80401392 Z M2.00489095,3.43535963 L3.84444548,3.43535963 C4.22247796,3.43535963 4.52807425,3.36350812 4.76344316,3.21987007 C4.99864965,3.0764594 5.11600928,2.82153596 5.11600928,2.45552204 C5.11600928,2.05114617 4.96061253,1.78274246 4.64907193,1.65355916 C4.38128538,1.56380974 4.03865893,1.51758701 3.62291415,1.51758701 L2.00489095,1.51758701 L2.00489095,3.43535963 Z M5.29313689,5.95324826 C5.29313689,5.50167517 5.10857077,5.18948492 4.74018561,5.02197216 C4.53418097,4.92676566 4.24352668,4.87810673 3.87085383,4.87463109 L2.00489095,4.87463109 L2.00489095,7.19135499 L3.8419768,7.19135499 C4.21939211,7.19135499 4.51150812,7.14194896 4.72232019,7.03888167 C5.10249652,6.84937819 5.29313689,6.4887239 5.29313689,5.95324826 Z M13.9161624,4.5389884 C13.9584548,4.82340603 13.977587,5.23606497 13.9698237,5.77543852 L9.43596752,5.77543852 C9.46097912,6.40124826 9.67702088,6.83888631 10.0867564,7.08932715 C10.3338515,7.24638051 10.6334385,7.32307193 10.9842506,7.32307193 C11.3541624,7.32307193 11.6556659,7.22955452 11.8877541,7.03732251 C12.0142088,6.93542459 12.1257541,6.79159165 12.2221949,6.61011137 L13.8840046,6.61011137 C13.840478,6.97973086 13.6403852,7.35461253 13.2808028,7.73556845 C12.7236937,8.34107657 11.9423573,8.64469142 10.9389049,8.64469142 C10.109949,8.64469142 9.37938283,8.38863109 8.74525754,7.87836195 C8.11324362,7.36630626 7.79582367,6.53585615 7.79582367,5.38386079 C7.79582367,4.30358701 8.0807935,3.47674246 8.65264965,2.90121578 C9.22661717,2.32461717 9.96735035,2.03763341 10.8804037,2.03763341 C11.4215963,2.03763341 11.9094524,2.13436659 12.3446868,2.32883991 C12.7785568,2.52350812 13.1371323,2.82988399 13.419536,3.25095592 C13.675109,3.62177726 13.839471,4.05054756 13.9161624,4.5389884 Z M12.2804362,4.7012065 C12.2499675,4.26847332 12.1054849,3.94095128 11.8453318,3.71711369 C11.5873225,3.49265893 11.2649977,3.3799768 10.8804037,3.3799768 C10.4618329,3.3799768 10.1386311,3.50042227 9.90897912,3.73715545 C9.67776798,3.97340139 9.53390255,4.29458933 9.47494664,4.70123898 L12.2804362,4.70123898 L12.2804362,4.7012065 Z" id="Behance"></path>
            </g>
        </g>
    </g>
</svg>