<?xml version="1.0" encoding="UTF-8"?>
<svg width="14px" height="14px" viewBox="0 0 14 14" version="1.1" xmlns="http://www.w3.org/2000/svg" xmlns:xlink="http://www.w3.org/1999/xlink">
    <!-- Generator: Sketch 54.1 (76490) - https://sketchapp.com -->
    <title>LinkedIn</title>
    <desc>Created with Sketch.</desc>
    <g id="Page-1" stroke="none" stroke-width="1" fill="none" fill-rule="evenodd">
        <g id="website-hd-copy-10" transform="translate(-1866.000000, -513.000000)" fill="#000000" fill-rule="nonzero">
            <path d="M1879.97132,521.185128 L1879.97132,526.350413 L1876.97681,526.350413 L1876.97681,521.531067 C1876.97681,520.320408 1876.54369,519.494181 1875.45978,519.494181 C1874.63235,519.494181 1874.13994,520.050998 1873.92332,520.589624 C1873.84432,520.782181 1873.82399,521.050195 1873.82399,521.319735 L1873.82399,526.350413 L1870.82847,526.350413 C1870.82847,526.350413 1870.86882,518.188023 1870.82847,517.342339 L1873.82369,517.342339 L1873.82369,518.619197 C1873.81762,518.628747 1873.80973,518.639044 1873.80401,518.648302 L1873.82369,518.648302 L1873.82369,518.619197 C1874.22164,518.006283 1874.93232,517.130715 1876.52306,517.130715 C1878.49388,517.130682 1879.97132,518.418195 1879.97132,521.185128 Z M1867.69504,513 C1866.67028,513 1866,513.672162 1866,514.556079 C1866,515.420733 1866.65089,516.113295 1867.65528,516.113295 L1867.67529,516.113295 C1868.7199,516.113295 1869.36955,515.420863 1869.36955,514.556079 C1869.34987,513.672162 1868.7199,513 1867.69504,513 Z M1866.17791,526.350413 L1869.17228,526.350413 L1869.17228,517.342339 L1866.17791,517.342339 L1866.17791,526.350413 Z" id="LinkedIn"></path>
        </g>
    </g>
</svg>