<?xml version="1.0" encoding="UTF-8"?>
<svg width="14px" height="14px" viewBox="0 0 14 14" version="1.1" xmlns="http://www.w3.org/2000/svg" xmlns:xlink="http://www.w3.org/1999/xlink">
    <!-- Generator: Sketch 54.1 (76490) - https://sketchapp.com -->
    <title>LinkedIn</title>
    <desc>Created with Sketch.</desc>
    <g id="Page-1" stroke="none" stroke-width="1" fill="none" fill-rule="evenodd">
        <g id="website-hd-copy-2" transform="translate(-1866.000000, -513.000000)" fill="#FFFFFF" fill-rule="nonzero">
            <g id="34227" transform="translate(1866.000000, 513.000000)">
                <path d="M13.9713179,8.18512761 L13.9713179,13.350413 L10.9768121,13.350413 L10.9768121,8.53106729 C10.9768121,7.32040835 10.5436891,6.49418097 9.45977726,6.49418097 C8.63234803,6.49418097 8.13994432,7.05099768 7.92331787,7.58962413 C7.84432019,7.78218097 7.82398608,8.0501949 7.82398608,8.3197355 L7.82398608,13.350413 L4.82847332,13.350413 C4.82847332,13.350413 4.86881671,5.1880232 4.82847332,4.34233875 L7.82369374,4.34233875 L7.82369374,5.61919722 C7.81761949,5.6287471 7.80972622,5.63904408 7.80400928,5.64830162 L7.82369374,5.64830162 L7.82369374,5.61919722 C8.22163805,5.00628306 8.93232483,4.13071462 10.5230626,4.13071462 C12.4938794,4.13068213 13.9713179,5.4181949 13.9713179,8.18512761 Z M1.69503944,-1.15463195e-14 C0.670278422,-1.15463195e-14 -6.83897383e-14,0.672162413 -6.83897383e-14,1.55607889 C-6.83897383e-14,2.42073318 0.650886311,3.11329466 1.65528074,3.11329466 L1.67529002,3.11329466 C2.71989791,3.11329466 3.36954988,2.42086311 3.36954988,1.55607889 C3.34986543,0.672162413 2.71989791,-1.15463195e-14 1.69503944,-1.15463195e-14 Z M0.177907193,13.350413 L3.17228306,13.350413 L3.17228306,4.34233875 L0.177907193,4.34233875 L0.177907193,13.350413 Z" id="LinkedIn"></path>
            </g>
        </g>
    </g>
</svg>