<?xml version="1.0" encoding="UTF-8"?>
<svg width="34px" height="20px" viewBox="0 0 34 20" version="1.1" xmlns="http://www.w3.org/2000/svg" xmlns:xlink="http://www.w3.org/1999/xlink">
    <!-- Generator: Sketch 54.1 (76490) - https://sketchapp.com -->
    <title>MVDBLOGO3</title>
    <desc>Created with Sketch.</desc>
    <g id="Page-1" stroke="none" stroke-width="1" fill="none" fill-rule="evenodd">
        <g id="website-hd-copy-2" transform="translate(-40.000000, -40.000000)" fill="#FFFFFF" fill-rule="nonzero">
            <g id="MVDBLOGO3" transform="translate(40.000000, 40.000000)">
                <path d="M26.5429721,10.1650165 L27.653334,10.1650165 C29.0417853,10.1650165 30.2817581,11.0340172 30.75556,12.3391259 L33.3728723,19.5486318 C33.3859787,19.5847338 33.3926828,19.6228465 33.3926828,19.6612539 C33.3926828,19.8435261 33.244922,19.9912869 33.0626498,19.9912869 L29.261179,19.9912869 C27.8652085,19.9912869 26.6202216,19.1129924 26.1520157,17.7978815 L24.973602,14.4879178 L23.7617967,17.8258906 C23.2879949,19.1309993 22.048022,20 20.6595709,20 L16.8427785,20 C16.6605063,20 16.5127455,19.8522392 16.5127455,19.669967 C16.5127455,19.6315596 16.5194496,19.5934469 16.5325559,19.557345 L22.8433014,2.17410944 C23.3171033,0.869000726 24.5570762,0 25.9455273,0 L29.7623197,0 C29.9445919,0 30.0923527,0.147760792 30.0923527,0.330033003 C30.0923527,0.368440396 30.0856486,0.406553069 30.0725423,0.44265505 L26.5429721,10.1650165 Z M9.44387715,0 L13.2606696,0 C13.4429418,0 13.5907026,0.147760792 13.5907026,0.330033003 C13.5907026,0.368440396 13.5839985,0.406553069 13.5708921,0.44265505 L7.26014658,17.8258906 C6.78634474,19.1309993 5.54637186,20 4.15792071,20 L0.3411283,20 C0.158856089,20 0.011095297,19.8522392 0.011095297,19.669967 C0.011095297,19.6315596 0.0177993894,19.5934469 0.0309057261,19.557345 L6.34165127,2.17410944 C6.81545312,0.869000726 8.05542599,0 9.44387715,0 Z M17.6947022,0 L21.5114946,0 C21.6937668,0 21.8415276,0.147760792 21.8415276,0.330033003 C21.8415276,0.368440396 21.8348235,0.406553069 21.8217172,0.44265505 L15.5109717,17.8258906 C15.0371698,19.1309993 13.7971969,20 12.4087458,20 L8.59195338,20 C8.40968117,20 8.26192038,19.8522392 8.26192038,19.669967 C8.26192038,19.6315596 8.26862447,19.5934469 8.28173081,19.557345 L14.5924764,2.17410944 C15.0662782,0.869000726 16.3062511,0 17.6947022,0 Z" id="Combined-Shape"></path>
            </g>
        </g>
    </g>
</svg>