<?xml version="1.0" encoding="UTF-8"?>
<svg width="272px" height="390px" viewBox="0 0 272 390" version="1.1" xmlns="http://www.w3.org/2000/svg" xmlns:xlink="http://www.w3.org/1999/xlink">
    <!-- Generator: Sketch 54.1 (76490) - https://sketchapp.com -->
    <title>MIKEVANDENBOS</title>
    <desc>Created with Sketch.</desc>
    <g id="Page-1" stroke="none" stroke-width="1" fill="none" fill-rule="evenodd">
        <g id="website-hd-copy-9" transform="translate(-830.000000, -343.000000)" fill-rule="nonzero" stroke="#FF4343">
            <path d="M831.05,427 L831,344 L859.37,344.06 L875.98,388.28 L892.48,344.06 L913.82,344.06 L927.9,427 L906.45,427 L899.3,379.26 L879.72,427 L871.14,427 L852.55,379.26 L852.5,427 L831.05,427 Z M958.385714,344.06 L958.385714,427 L936.825714,427 L936.825714,344.06 L958.385714,344.06 Z M992.611428,378.27 L1018.90143,344.06 L1045.52143,344.06 L1012.63143,383.33 L1048.60143,427 L1020.66143,427 L992.611428,391.03 L992.611428,427 L971.051428,427 L971.051428,344.06 L992.611428,344.06 L992.611428,378.27 Z M1100.64714,362.32 L1075.01714,362.32 L1075.01714,376.18 L1099.21714,376.18 L1099.21714,394.44 L1075.01714,394.44 L1075.01714,408.74 L1100.64714,408.74 L1100.64714,427 L1053.45714,427 L1053.45714,344.06 L1100.64714,344.06 L1100.64714,362.32 Z M854.5,445 L854.45,495.55 L874.58,445.06 L898.01,445.06 L863.03,528 L831,528 L831.07,445 L854.5,445 Z M940.485714,497.2 L930.805714,469.59 L921.125714,497.2 L940.485714,497.2 Z M946.205714,513.59 L915.405714,513.59 L910.455714,528 L887.465714,528 L919.035714,445.06 L942.575714,445.06 L974.145714,528 L951.155714,528 L946.205714,513.59 Z M984.891428,528 L984.891428,445.06 L1006.45143,445.06 L1046.27143,495.77 L1046.27143,445.06 L1067.72143,445.06 L1067.72143,528 L1046.27143,528 L1006.45143,477.29 L1006.45143,528 L984.891428,528 Z M852.25,610.74 L857.2,610.74 C860.940019,610.74 864.276652,610.153339 867.21,608.98 C870.143348,607.806661 872.618323,606.193344 874.635,604.14 C876.651677,602.086656 878.191661,599.648347 879.255,596.825 C880.318339,594.001653 880.85,590.90335 880.85,587.53 C880.85,584.229984 880.300005,581.150014 879.2,578.29 C878.099994,575.429986 876.541677,572.973344 874.525,570.92 C872.508323,568.866656 870.033348,567.253339 867.1,566.08 C864.166652,564.906661 860.866685,564.32 857.2,564.32 L852.25,564.32 L852.25,610.74 Z M830.69,546.06 L862.59,546.06 C868.236695,546.06 873.534975,547.196655 878.485,549.47 C883.435025,551.743345 887.761648,554.768314 891.465,558.545 C895.168352,562.321686 898.083323,566.721642 900.21,571.745 C902.336677,576.768358 903.4,582.029972 903.4,587.53 C903.4,592.956694 902.35501,598.181642 900.265,603.205 C898.17499,608.228358 895.278352,612.646648 891.575,616.46 C887.871648,620.273352 883.545025,623.316655 878.595,625.59 C873.644975,627.863345 868.310029,629 862.59,629 L830.69,629 L830.69,546.06 Z M961.625714,564.32 L935.995714,564.32 L935.995714,578.18 L960.195714,578.18 L960.195714,596.44 L935.995714,596.44 L935.995714,610.74 L961.625714,610.74 L961.625714,629 L914.435714,629 L914.435714,546.06 L961.625714,546.06 L961.625714,564.32 Z M975.421428,629 L975.421428,546.06 L996.981428,546.06 L1036.80143,596.77 L1036.80143,546.06 L1058.25143,546.06 L1058.25143,629 L1036.80143,629 L996.981428,578.29 L996.981428,629 L975.421428,629 Z M852.25,713.28 L856.98,713.28 C862.406694,713.28 866.293322,712.58334 868.64,711.19 C870.986678,709.79666 872.16,707.560015 872.16,704.48 C872.16,701.399985 870.986678,699.16334 868.64,697.77 C866.293322,696.37666 862.406694,695.68 856.98,695.68 L852.25,695.68 L852.25,713.28 Z M852.25,679.62 L856.21,679.62 C862.9567,679.62 866.33,676.94336 866.33,671.59 C866.33,666.23664 862.9567,663.56 856.21,663.56 L852.25,663.56 L852.25,679.62 Z M830.69,647.06 L862.81,647.06 C870.436705,647.06 876.22998,648.893315 880.19,652.56 C884.15002,656.226685 886.13,661.506632 886.13,668.4 C886.13,672.580021 885.378341,676.044986 883.875,678.795 C882.371659,681.545014 880.080015,683.873324 877,685.78 C880.080015,686.36667 882.701656,687.264994 884.865,688.475 C887.028344,689.685006 888.788327,691.169991 890.145,692.93 C891.501673,694.690009 892.47333,696.669989 893.06,698.87 C893.64667,701.070011 893.94,703.416654 893.94,705.91 C893.94,709.796686 893.261673,713.243318 891.905,716.25 C890.548327,719.256682 888.641679,721.786656 886.185,723.84 C883.728321,725.893344 880.740018,727.433328 877.22,728.46 C873.699982,729.486672 869.740022,730 865.34,730 L830.69,730 L830.69,647.06 Z M925.245714,688.53 C925.245714,691.830017 925.869041,694.873319 927.115714,697.66 C928.362387,700.446681 930.049037,702.866656 932.175714,704.92 C934.302391,706.973344 936.777367,708.568328 939.600714,709.705 C942.424061,710.841672 945.412365,711.41 948.565714,711.41 C951.719063,711.41 954.707367,710.841672 957.530714,709.705 C960.354061,708.568328 962.84737,706.973344 965.010714,704.92 C967.174058,702.866656 968.879041,700.446681 970.125714,697.66 C971.372387,694.873319 971.995714,691.830017 971.995714,688.53 C971.995714,685.229984 971.372387,682.186681 970.125714,679.4 C968.879041,676.613319 967.174058,674.193344 965.010714,672.14 C962.84737,670.086656 960.354061,668.491672 957.530714,667.355 C954.707367,666.218328 951.719063,665.65 948.565714,665.65 C945.412365,665.65 942.424061,666.218328 939.600714,667.355 C936.777367,668.491672 934.302391,670.086656 932.175714,672.14 C930.049037,674.193344 928.362387,676.613319 927.115714,679.4 C925.869041,682.186681 925.245714,685.229984 925.245714,688.53 Z M902.695714,688.53 C902.695714,682.369969 903.832369,676.631693 906.105714,671.315 C908.379059,665.998307 911.53236,661.36002 915.565714,657.4 C919.599068,653.43998 924.420686,650.341678 930.030714,648.105 C935.640742,645.868322 941.819014,644.75 948.565714,644.75 C955.239081,644.75 961.399019,645.868322 967.045714,648.105 C972.692409,650.341678 977.550694,653.43998 981.620714,657.4 C985.690734,661.36002 988.862369,665.998307 991.135714,671.315 C993.409059,676.631693 994.545714,682.369969 994.545714,688.53 C994.545714,694.690031 993.409059,700.428307 991.135714,705.745 C988.862369,711.061693 985.690734,715.69998 981.620714,719.66 C977.550694,723.62002 972.692409,726.718322 967.045714,728.955 C961.399019,731.191678 955.239081,732.31 948.565714,732.31 C941.819014,732.31 935.640742,731.191678 930.030714,728.955 C924.420686,726.718322 919.599068,723.62002 915.565714,719.66 C911.53236,715.69998 908.379059,711.061693 906.105714,705.745 C903.832369,700.428307 902.695714,694.690031 902.695714,688.53 Z M1050.01143,668.29 C1047.66475,666.383324 1045.31811,664.971671 1042.97143,664.055 C1040.62475,663.138329 1038.35144,662.68 1036.15143,662.68 C1033.36475,662.68 1031.09144,663.339993 1029.33143,664.66 C1027.57142,665.980007 1026.69143,667.703323 1026.69143,669.83 C1026.69143,671.296674 1027.13142,672.506662 1028.01143,673.46 C1028.89143,674.413338 1030.04642,675.23833 1031.47643,675.935 C1032.90644,676.63167 1034.51975,677.236664 1036.31643,677.75 C1038.1131,678.263336 1039.89142,678.81333 1041.65143,679.4 C1048.69146,681.746678 1053.84308,684.881647 1057.10643,688.805 C1060.36978,692.728353 1062.00143,697.843302 1062.00143,704.15 C1062.00143,708.403355 1061.28644,712.253316 1059.85643,715.7 C1058.42642,719.146684 1056.33644,722.098321 1053.58643,724.555 C1050.83641,727.011679 1047.46311,728.918327 1043.46643,730.275 C1039.46974,731.631673 1034.94145,732.31 1029.88143,732.31 C1019.39471,732.31 1009.67814,729.193364 1000.73143,722.96 L1009.97143,705.58 C1013.19811,708.440014 1016.38808,710.56666 1019.54143,711.96 C1022.69478,713.35334 1025.81141,714.05 1028.89143,714.05 C1032.41145,714.05 1035.03309,713.243341 1036.75643,711.63 C1038.47977,710.016659 1039.34143,708.183344 1039.34143,706.13 C1039.34143,704.883327 1039.12143,703.801671 1038.68143,702.885 C1038.24143,701.968329 1037.5081,701.125004 1036.48143,700.355 C1035.45476,699.584996 1034.11644,698.870003 1032.46643,698.21 C1030.81642,697.549997 1028.81811,696.816671 1026.47143,696.01 C1023.68475,695.129996 1020.95311,694.158339 1018.27643,693.095 C1015.59975,692.031661 1013.21644,690.620009 1011.12643,688.86 C1009.03642,687.099991 1007.34977,684.88168 1006.06643,682.205 C1004.78309,679.52832 1004.14143,676.136687 1004.14143,672.03 C1004.14143,667.923313 1004.81975,664.201683 1006.17643,660.865 C1007.5331,657.528317 1009.43975,654.668345 1011.89643,652.285 C1014.35311,649.901655 1017.35974,648.050007 1020.91643,646.73 C1024.47311,645.409993 1028.45141,644.75 1032.85143,644.75 C1036.95812,644.75 1041.24807,645.318328 1045.72143,646.455 C1050.19478,647.591672 1054.48474,649.259989 1058.59143,651.46 L1050.01143,668.29 Z" id="MIKEVANDENBOS"></path>
        </g>
    </g>
</svg>