<?xml version="1.0" encoding="UTF-8"?>
<svg width="302px" height="391px" viewBox="0 0 302 391" version="1.1" xmlns="http://www.w3.org/2000/svg" xmlns:xlink="http://www.w3.org/1999/xlink">
    <!-- Generator: Sketch 54.1 (76490) - https://sketchapp.com -->
    <title>Group</title>
    <desc>Created with Sketch.</desc>
    <g id="Page-1" stroke="none" stroke-width="1" fill="none" fill-rule="evenodd">
        <g id="website-hd-copy-9" transform="translate(-829.000000, -343.000000)" fill-rule="nonzero">
            <g id="Group" transform="translate(830.690000, 344.000000)">
                <path d="M30.36,83 L30.31,2.84217094e-14 L58.68,0.06 L75.29,44.28 L91.79,0.06 L113.13,0.06 L127.21,83 L105.76,83 L98.61,35.26 L79.03,83 L70.45,83 L51.86,35.26 L51.81,83 L30.36,83 Z M157.695714,0.06 L157.695714,83 L136.135714,83 L136.135714,0.06 L157.695714,0.06 Z M191.921428,34.27 L218.211428,0.06 L244.831428,0.06 L211.941428,39.33 L247.911428,83 L219.971428,83 L191.921428,47.03 L191.921428,83 L170.361428,83 L170.361428,0.06 L191.921428,0.06 L191.921428,34.27 Z M299.957142,18.32 L274.327142,18.32 L274.327142,32.18 L298.527142,32.18 L298.527142,50.44 L274.327142,50.44 L274.327142,64.74 L299.957142,64.74 L299.957142,83 L252.767142,83 L252.767142,0.06 L299.957142,0.06 L299.957142,18.32 Z M53.81,101 L53.76,151.55 L73.89,101.06 L97.32,101.06 L62.34,184 L30.31,184 L30.38,101 L53.81,101 Z M139.795714,153.2 L130.115714,125.59 L120.435714,153.2 L139.795714,153.2 Z M145.515714,169.59 L114.715714,169.59 L109.765714,184 L86.775714,184 L118.345714,101.06 L141.885714,101.06 L173.455714,184 L150.465714,184 L145.515714,169.59 Z M184.201428,184 L184.201428,101.06 L205.761428,101.06 L245.581428,151.77 L245.581428,101.06 L267.031428,101.06 L267.031428,184 L245.581428,184 L205.761428,133.29 L205.761428,184 L184.201428,184 Z M51.56,266.74 L56.51,266.74 C60.2500187,266.74 63.586652,266.153339 66.52,264.98 C69.453348,263.806661 71.9283233,262.193344 73.945,260.14 C75.9616768,258.086656 77.5016614,255.648347 78.565,252.825 C79.6283387,250.001653 80.16,246.90335 80.16,243.53 C80.16,240.229984 79.6100055,237.150014 78.51,234.29 C77.4099945,231.429986 75.8516768,228.973344 73.835,226.92 C71.8183233,224.866656 69.343348,223.253339 66.41,222.08 C63.476652,220.906661 60.176685,220.32 56.51,220.32 L51.56,220.32 L51.56,266.74 Z M30,202.06 L61.9,202.06 C67.5466949,202.06 72.8449753,203.196655 77.795,205.47 C82.7450248,207.743345 87.0716482,210.768314 90.775,214.545 C94.4783519,218.321686 97.3933227,222.721642 99.52,227.745 C101.646677,232.768358 102.71,238.029972 102.71,243.53 C102.71,248.956694 101.66501,254.181642 99.575,259.205 C97.4849896,264.228358 94.5883519,268.646648 90.885,272.46 C87.1816482,276.273352 82.8550248,279.316655 77.905,281.59 C72.9549753,283.863345 67.6200286,285 61.9,285 L30,285 L30,202.06 Z M160.935714,220.32 L135.305714,220.32 L135.305714,234.18 L159.505714,234.18 L159.505714,252.44 L135.305714,252.44 L135.305714,266.74 L160.935714,266.74 L160.935714,285 L113.745714,285 L113.745714,202.06 L160.935714,202.06 L160.935714,220.32 Z M174.731428,285 L174.731428,202.06 L196.291428,202.06 L236.111428,252.77 L236.111428,202.06 L257.561428,202.06 L257.561428,285 L236.111428,285 L196.291428,234.29 L196.291428,285 L174.731428,285 Z M51.56,369.28 L56.29,369.28 C61.7166938,369.28 65.6033216,368.58334 67.95,367.19 C70.2966784,365.79666 71.47,363.560015 71.47,360.48 C71.47,357.399985 70.2966784,355.16334 67.95,353.77 C65.6033216,352.37666 61.7166938,351.68 56.29,351.68 L51.56,351.68 L51.56,369.28 Z M51.56,335.62 L55.52,335.62 C62.2667004,335.62 65.64,332.94336 65.64,327.59 C65.64,322.23664 62.2667004,319.56 55.52,319.56 L51.56,319.56 L51.56,335.62 Z M30,303.06 L62.12,303.06 C69.7467048,303.06 75.5399802,304.893315 79.5,308.56 C83.4600198,312.226685 85.44,317.506632 85.44,324.4 C85.44,328.580021 84.6883409,332.044986 83.185,334.795 C81.6816592,337.545014 79.3900154,339.873324 76.31,341.78 C79.3900154,342.36667 82.0116559,343.264994 84.175,344.475 C86.3383442,345.685006 88.0983266,347.169991 89.455,348.93 C90.8116735,350.690009 91.7833304,352.669989 92.37,354.87 C92.9566696,357.070011 93.25,359.416654 93.25,361.91 C93.25,365.796686 92.5716735,369.243318 91.215,372.25 C89.8583266,375.256682 87.951679,377.786656 85.495,379.84 C83.0383211,381.893344 80.0500176,383.433328 76.53,384.46 C73.0099824,385.486672 69.050022,386 64.65,386 L30,386 L30,303.06 Z M124.555714,344.53 C124.555714,347.830017 125.179041,350.873319 126.425714,353.66 C127.672387,356.446681 129.359037,358.866656 131.485714,360.92 C133.612391,362.973344 136.087367,364.568328 138.910714,365.705 C141.734061,366.841672 144.722365,367.41 147.875714,367.41 C151.029063,367.41 154.017367,366.841672 156.840714,365.705 C159.664061,364.568328 162.15737,362.973344 164.320714,360.92 C166.484058,358.866656 168.189041,356.446681 169.435714,353.66 C170.682387,350.873319 171.305714,347.830017 171.305714,344.53 C171.305714,341.229984 170.682387,338.186681 169.435714,335.4 C168.189041,332.613319 166.484058,330.193344 164.320714,328.14 C162.15737,326.086656 159.664061,324.491672 156.840714,323.355 C154.017367,322.218328 151.029063,321.65 147.875714,321.65 C144.722365,321.65 141.734061,322.218328 138.910714,323.355 C136.087367,324.491672 133.612391,326.086656 131.485714,328.14 C129.359037,330.193344 127.672387,332.613319 126.425714,335.4 C125.179041,338.186681 124.555714,341.229984 124.555714,344.53 Z M102.005714,344.53 C102.005714,338.369969 103.142369,332.631693 105.415714,327.315 C107.689059,321.998307 110.842361,317.36002 114.875714,313.4 C118.909068,309.43998 123.730686,306.341678 129.340714,304.105 C134.950742,301.868322 141.129014,300.75 147.875714,300.75 C154.549081,300.75 160.709019,301.868322 166.355714,304.105 C172.002409,306.341678 176.860694,309.43998 180.930714,313.4 C185.000734,317.36002 188.172369,321.998307 190.445714,327.315 C192.719059,332.631693 193.855714,338.369969 193.855714,344.53 C193.855714,350.690031 192.719059,356.428307 190.445714,361.745 C188.172369,367.061693 185.000734,371.69998 180.930714,375.66 C176.860694,379.62002 172.002409,382.718322 166.355714,384.955 C160.709019,387.191678 154.549081,388.31 147.875714,388.31 C141.129014,388.31 134.950742,387.191678 129.340714,384.955 C123.730686,382.718322 118.909068,379.62002 114.875714,375.66 C110.842361,371.69998 107.689059,367.061693 105.415714,361.745 C103.142369,356.428307 102.005714,350.690031 102.005714,344.53 Z M249.321428,324.29 C246.97475,322.383324 244.628106,320.971671 242.281428,320.055 C239.93475,319.138329 237.661439,318.68 235.461428,318.68 C232.674747,318.68 230.401437,319.339993 228.641428,320.66 C226.881419,321.980007 226.001428,323.703323 226.001428,325.83 C226.001428,327.296674 226.441424,328.506662 227.321428,329.46 C228.201432,330.413338 229.356421,331.23833 230.786428,331.935 C232.216435,332.63167 233.829752,333.236664 235.626428,333.75 C237.423104,334.263336 239.201419,334.81333 240.961428,335.4 C248.001463,337.746678 253.153078,340.881647 256.416428,344.805 C259.679778,348.728353 261.311428,353.843302 261.311428,360.15 C261.311428,364.403355 260.596435,368.253316 259.166428,371.7 C257.736421,375.146684 255.646442,378.098321 252.896428,380.555 C250.146414,383.011679 246.773115,384.918327 242.776428,386.275 C238.779741,387.631673 234.251453,388.31 229.191428,388.31 C218.704709,388.31 208.988139,385.193364 200.041428,378.96 L209.281428,361.58 C212.508111,364.440014 215.698079,366.56666 218.851428,367.96 C222.004777,369.35334 225.121413,370.05 228.201428,370.05 C231.721446,370.05 234.343086,369.243341 236.066428,367.63 C237.78977,366.016659 238.651428,364.183344 238.651428,362.13 C238.651428,360.883327 238.43143,359.801671 237.991428,358.885 C237.551426,357.968329 236.8181,357.125004 235.791428,356.355 C234.764756,355.584996 233.426436,354.870003 231.776428,354.21 C230.12642,353.549997 228.128106,352.816671 225.781428,352.01 C222.994747,351.129996 220.263108,350.158339 217.586428,349.095 C214.909748,348.031661 212.526438,346.620009 210.436428,344.86 C208.346418,343.099991 206.659768,340.88168 205.376428,338.205 C204.093088,335.52832 203.451428,332.136687 203.451428,328.03 C203.451428,323.923313 204.129755,320.201683 205.486428,316.865 C206.843101,313.528317 208.749749,310.668345 211.206428,308.285 C213.663107,305.901655 216.669744,304.050007 220.226428,302.73 C223.783112,301.409993 227.761406,300.75 232.161428,300.75 C236.268115,300.75 240.558072,301.318328 245.031428,302.455 C249.504784,303.591672 253.794741,305.259989 257.901428,307.46 L249.321428,324.29 Z" id="MIKEVANDENBOS" fill="#FFFFFF"></path>
                <path d="M1.35939777,82 L20.8110468,82 L20.8655605,29.9503535 L41.1337408,82 L48.359299,82 L69.0615668,31.5236842 L76.6213837,82 L96.0259316,82 L82.2854542,1.06 L62.4842125,1.06 L45.2931114,47.132151 L27.9868531,1.05853629 L1.31060387,1.00211842 L1.35939777,82 Z M126.695714,1.06 L107.135714,1.06 L107.135714,82 L126.695714,82 L126.695714,1.06 Z M160.921428,1.06 L141.361428,1.06 L141.361428,82 L160.921428,82 L160.921428,44.121477 L190.459726,82 L215.792202,82 L180.64149,39.3246701 L212.689491,1.06 L188.704119,1.06 L160.921428,37.2123723 L160.921428,1.06 Z M268.957142,17.32 L268.957142,1.06 L223.767142,1.06 L223.767142,82 L268.957142,82 L268.957142,65.74 L243.327142,65.74 L243.327142,49.44 L267.527142,49.44 L267.527142,33.18 L243.327142,33.18 L243.327142,17.32 L268.957142,17.32 Z M22.8090104,102 L1.37915698,102 L1.31084373,183 L31.6764518,183 L65.8129505,102.06 L44.5678554,102.06 L22.754835,156.771346 L22.8090104,102 Z M100.115714,122.567508 L111.20599,154.2 L89.0254378,154.2 L100.115714,122.567508 Z M121.179558,183 L142.005085,183 L111.196358,102.06 L89.03507,102.06 L58.2263432,183 L79.0518702,183 L84.0018702,168.59 L116.229558,168.59 L121.179558,183 Z M155.201428,183 L174.761428,183 L174.761428,130.397337 L216.067641,183 L236.031428,183 L236.031428,102.06 L216.581428,102.06 L216.581428,154.662663 L175.275215,102.06 L155.201428,102.06 L155.201428,183 Z M26.51,267.74 L20.56,267.74 L20.56,219.32 L26.51,219.32 C30.2994362,219.32 33.7250993,219.929007 36.7813907,221.151523 C39.8403556,222.375109 42.4323127,224.064681 44.5484482,226.219292 C46.6626379,228.371922 48.2949707,230.945246 49.4433456,233.931021 C50.5882777,236.907844 51.16,240.109489 51.16,243.53 C51.16,247.020503 50.607876,250.238054 49.5008288,253.177455 C48.3889989,256.129555 46.7739026,258.686791 44.6584482,260.840708 C42.5423127,262.995319 39.9503556,264.684891 36.8913907,265.908477 C33.8344177,267.131266 30.3722423,267.74 26.51,267.74 Z M1,203.06 L1,284 L31.9,284 C37.47774,284 42.6702406,282.893694 47.4876501,280.681254 C52.3261213,278.459141 56.5508699,275.487496 60.1676221,271.763316 C63.782753,268.040805 66.609779,263.728695 68.6517238,258.820863 C70.691119,253.919159 71.71,248.824754 71.71,243.53 C71.71,238.163631 70.6734737,233.034613 68.5991255,228.134859 C66.5209584,223.226085 63.6758397,218.931566 60.0609951,215.245141 C56.4436394,211.556154 52.2177237,208.601594 47.3776501,206.378746 C42.5597856,204.166097 37.4039464,203.06 31.9,203.06 L1,203.06 Z M129.935714,219.32 L129.935714,203.06 L84.745714,203.06 L84.745714,284 L129.935714,284 L129.935714,267.74 L104.305714,267.74 L104.305714,251.44 L128.505714,251.44 L128.505714,235.18 L104.305714,235.18 L104.305714,219.32 L129.935714,219.32 Z M145.731428,284 L165.291428,284 L165.291428,231.397337 L206.597641,284 L226.561428,284 L226.561428,203.06 L207.111428,203.06 L207.111428,255.662663 L165.805215,203.06 L145.731428,203.06 L145.731428,284 Z M26.29,370.28 L20.56,370.28 L20.56,350.68 L26.29,350.68 C31.8804667,350.68 35.9257103,351.405091 38.4605388,352.910145 C41.1225512,354.490715 42.47,357.059289 42.47,360.48 C42.47,363.900711 41.1225512,366.469285 38.4605388,368.049855 C35.9257103,369.554909 31.8804667,370.28 26.29,370.28 Z M25.52,336.62 L20.56,336.62 L20.56,318.56 L25.52,318.56 C32.7748027,318.56 36.64,321.62695 36.64,327.59 C36.64,333.55305 32.7748027,336.62 25.52,336.62 Z M1,304.06 L1,385 L34.65,385 C38.9592004,385 42.8254968,384.498813 46.25,383.5 C49.6418682,382.510705 52.5067978,381.0343 54.8536899,379.072718 C57.1936923,377.116895 59.0084042,374.708912 60.3034949,371.838711 C61.5991834,368.967185 62.25,365.660333 62.25,361.91 C62.25,359.501741 61.967483,357.241605 61.4037651,355.127663 C60.8510161,353.054854 59.9382792,351.194937 58.6629898,349.540508 C57.3912793,347.890721 55.73535,346.493531 53.6868471,345.347758 C51.6234881,344.193676 49.1027814,343.329937 46.1228879,342.762339 L43.5996626,342.281724 L45.7836454,340.929735 C48.7216923,339.110944 50.8905753,336.907359 52.3075519,334.315328 C53.7237025,331.724809 54.44,328.422852 54.44,324.4 C54.44,317.768604 52.5605201,312.756657 48.820592,309.293761 C45.0655803,305.816898 39.5137825,304.06 32.12,304.06 L1,304.06 Z M93.555714,344.53 C93.555714,341.091959 94.20755,337.909466 95.5128957,334.991634 C96.8113395,332.08923 98.5717198,329.563467 100.791119,327.420599 C103.011137,325.277133 105.595329,323.611765 108.537247,322.427356 C111.480407,321.242448 114.595537,320.65 117.875714,320.65 C121.155891,320.65 124.271021,321.242448 127.214181,322.427356 C130.153716,323.610806 132.754004,325.274225 135.00914,327.414694 C137.267847,329.558551 139.048806,332.086364 140.348532,334.991634 C141.653878,337.909466 142.305714,341.091959 142.305714,344.53 C142.305714,347.968041 141.653878,351.150534 140.348532,354.068366 C139.048806,356.973636 137.267847,359.501449 135.00914,361.645306 C132.754004,363.785775 130.153716,365.449194 127.214181,366.632644 C124.271021,367.817552 121.155891,368.41 117.875714,368.41 C114.595537,368.41 111.480407,367.817552 108.537247,366.632644 C105.595329,365.448235 103.011137,363.782867 100.791119,361.639401 C98.5717198,359.496533 96.8113395,356.97077 95.5128957,354.068366 C94.20755,351.150534 93.555714,347.968041 93.555714,344.53 Z M73.005714,344.53 C73.005714,350.557016 74.1158683,356.161505 76.3351867,361.351846 C78.5574876,366.549163 81.636683,371.078444 85.5763041,374.946436 C89.5132888,378.811839 94.2222803,381.837769 99.7110577,384.026105 C105.199741,386.214404 111.252461,387.31 117.875714,387.31 C124.425889,387.31 130.46094,386.214351 135.987448,384.025279 C141.513517,381.836382 146.259598,378.809636 150.233359,374.943274 C154.208249,371.075814 157.304596,366.54763 159.526241,361.351846 C161.74556,356.161505 162.855714,350.557016 162.855714,344.53 C162.855714,338.502984 161.74556,332.898495 159.526241,327.708154 C157.304596,322.51237 154.208249,317.984186 150.233359,314.116726 C146.259598,310.250364 141.513517,307.223618 135.987448,305.034721 C130.46094,302.845649 124.425889,301.75 117.875714,301.75 C111.252461,301.75 105.199741,302.845596 99.7110577,305.033895 C94.2222803,307.222231 89.5132888,310.248161 85.5763041,314.113564 C81.636683,317.981556 78.5574876,322.510837 76.3351867,327.708154 C74.1158683,332.898495 73.005714,338.502984 73.005714,344.53 Z M218.982338,322.753404 L226.561691,307.886211 C222.790858,305.948205 218.865812,304.461089 214.785156,303.424201 C210.390065,302.307415 206.182478,301.75 202.161428,301.75 C197.876038,301.75 194.015197,302.390508 190.574372,303.667515 C187.144537,304.940444 184.257033,306.718724 181.902741,309.002738 C179.546898,311.288258 177.717915,314.031731 176.412784,317.24165 C175.106484,320.454441 174.451428,324.048397 174.451428,328.03 C174.451428,331.997141 175.065654,335.243763 176.278144,337.772671 C177.501432,340.324101 179.101439,342.428457 181.080564,344.095089 C183.087228,345.784911 185.377527,347.141473 187.955623,348.165648 C190.609832,349.22006 193.318768,350.183641 196.106508,351.064313 C198.467729,351.875983 200.481073,352.614825 202.147819,353.281523 C203.873959,353.971979 205.287986,354.727419 206.391428,355.555 C207.539899,356.416353 208.378766,357.381051 208.892951,358.452269 C209.401509,359.511764 209.651428,360.740533 209.651428,362.13 C209.651428,364.471646 208.66778,366.564515 206.749852,368.360021 C204.817541,370.168994 201.95427,371.05 198.201428,371.05 C194.977959,371.05 191.724448,370.322745 188.447264,368.874687 C185.508485,367.576156 182.552058,365.669148 179.57565,363.156837 L171.343861,378.640439 C179.921218,384.42386 189.195837,387.31 199.191428,387.31 C204.14667,387.31 208.567002,386.647845 212.454993,385.328069 C216.328504,384.013207 219.584142,382.173063 222.230215,379.809239 C224.867946,377.452865 226.870107,374.625253 228.242771,371.31678 C229.620579,367.99591 230.311428,364.275952 230.311428,360.15 C230.311428,354.065026 228.752119,349.176855 225.647618,345.444477 C222.516891,341.680569 217.521913,338.640921 210.6452,336.348683 C208.898957,335.766602 207.134481,335.220888 205.351707,334.711524 C203.500964,334.18274 201.83323,333.55734 200.348459,332.83399 C198.81181,332.085366 197.555789,331.188208 196.586625,330.13828 C195.529973,328.993574 195.001428,327.540076 195.001428,325.83 C195.001428,323.385373 196.032081,321.36701 198.041428,319.86 C199.986702,318.401044 202.470299,317.68 205.461428,317.68 C207.790529,317.68 210.186375,318.163033 212.645279,319.123543 C214.766956,319.952323 216.879022,321.163215 218.982338,322.753404 Z" id="MIKEVANDENBOS" stroke="#FF4343" stroke-width="2"></path>
            </g>
        </g>
    </g>
</svg>